# xmcd
#
# Track frame offsets:
#	150
#	15305
#	30015
#	46820
#	60885
#	75130
#	85677
#	100972
#	117922
#	134085
#
# Disc length: 1996 seconds
#
# Revision: 1
# Processed by: cddbd v1.5.2PL0 Copyright (c) Steve Scherf et al.
# Submitted via: audiograbber 1.83.01
#
DISCID=6007ca0a
DTITLE=Various Artist - CDX 32 May 1992
DYEAR=1992
DGENRE=Country
TTITLE0=Brooks and Dunn - Boot Scootin' Boogie
TTITLE1=Mary Chapin Carpenter - I Feel Lucky
TTITLE2=Mark Chesnutt - I'll Think Of Something
TTITLE3=Tanya Tucker - If Your Heart Ain't Busy Tonight
TTITLE4=David Lynn Jones - Louise
TTITLE5=Clinton Gregory - She Takes The Sad Out Of Saturday Night
TTITLE6=Cimmaron - What Do You Wear With A Broken Heart
TTITLE7=Ronna Reeves - What If You're Wrong
TTITLE8=Toy Caldwell - Wrong/Right
TTITLE9=Sammy Kershaw - Yard Sale
EXTD=
EXTT0=
EXTT1=
EXTT2=
EXTT3=
EXTT4=
EXTT5=
EXTT6=
EXTT7=
EXTT8=
EXTT9=
PLAYORDER=
